<mxfile host="app.diagrams.net" modified="2024-03-11T07:32:23.551Z" agent="Mozilla/5.0 (Windows NT 10.0; Win64; x64) AppleWebKit/537.36 (KHTML, like Gecko) Chrome/122.0.0.0 Safari/537.36" version="24.0.4" etag="5-BYC1lJ3YCS3qC0Vpk4" type="github">
  <diagram name="Page-1" id="0J1pIX_rQ01TUWI-CfCy">
    <mxGraphModel>
      <root>
        <mxCell id="0" />
        <mxCell id="1" parent="0" />
      </root>
    </mxGraphModel>
  </diagram>
</mxfile>
